<?xml version="1.0" encoding="iso-8859-1"?>
<!-- Generator: Adobe Illustrator 19.1.0, SVG Export Plug-In . SVG Version: 6.00 Build 0)  -->
<svg version="1.1" id="Capa_1" xmlns="http://www.w3.org/2000/svg" xmlns:xlink="http://www.w3.org/1999/xlink" x="0px" y="0px"
	 viewBox="0 0 123.102 123.102" style="enable-background:new 0 0 123.102 123.102;" xml:space="preserve">
<g>
	<path d="M46.01,75.345c-3.177,0-5.762-2.585-5.762-5.763s2.585-5.763,5.762-5.763c3.178,0,5.764,2.585,5.764,5.763
		S49.187,75.345,46.01,75.345z M46.01,66.82c-1.522,0-2.762,1.239-2.762,2.763s1.239,2.763,2.762,2.763
		c1.523,0,2.764-1.239,2.764-2.763S47.533,66.82,46.01,66.82z"/>
	<path d="M49.676,67.52"/>
	<path d="M61.51,113.645c-6.03,0-8.588-1.769-9.239-2.321c-3.453-2.261-5.682-8.5-5.927-9.211c-1.676-4.216-6.64-8.097-6.689-8.135
		c-0.031-0.024-0.062-0.051-0.092-0.078c-1.905-1.735-3.577-3.649-4.97-5.689c-3.097-4.54-4.667-9.801-4.667-15.64
		c0-7.887,2.645-14.423,8.084-19.982c0.579-0.593,1.528-0.603,2.121-0.023s0.603,1.529,0.023,2.122
		c-4.932,5.039-7.229,10.722-7.229,17.883c0,5.224,1.395,9.917,4.146,13.949c1.251,1.833,2.754,3.556,4.47,5.124
		c0.604,0.476,5.689,4.574,7.615,9.427c0.604,1.74,2.595,6.393,4.816,7.781c0.097,0.06,0.186,0.131,0.267,0.212
		c-0.001,0-0.001,0-0.001,0c0.003,0,1.857,1.582,7.271,1.582c0.828,0,1.5,0.671,1.5,1.5S62.338,113.645,61.51,113.645z"/>
	<path d="M61.297,108.371c-3.561,0-5.649-1.417-6.775-2.607c-1.426-1.506-2.21-3.625-2.098-5.667
		c0.217-3.891,4.907-3.891,9.045-3.891c0.828,0,1.5,0.671,1.5,1.5s-0.672,1.5-1.5,1.5c-3.031,0-5.995,0.082-6.049,1.056
		c-0.068,1.234,0.411,2.52,1.28,3.438c1.049,1.108,2.595,1.669,4.597,1.669c0.828,0,1.5,0.671,1.5,1.5
		S62.125,108.371,61.297,108.371z"/>
	<path d="M21.554,104.208c-0.038,0-0.062,0-0.074-0.001c-6.153,0-9.568-3.945-10.868-6.709c-2.445-0.255-4.383-1.812-4.624-2.013
		c-5.55-4.833-4.804-12.857-4.438-15.234c-2.013-3.247-1.513-9.37-1.444-10.099c2.945-20.76,23.539-32.473,27.638-34.61
		c0.734-0.38,1.641-0.098,2.023,0.636c0.383,0.735,0.098,1.641-0.637,2.024c-3.87,2.019-23.315,13.063-26.046,32.3
		c-0.219,2.389-0.095,6.875,1.204,8.433c0.295,0.354,0.411,0.823,0.314,1.273c-0.018,0.083-1.732,8.584,3.331,12.993
		c0.476,0.389,2.114,1.442,3.587,1.323c0.709-0.053,1.335,0.378,1.545,1.042c0.073,0.223,1.934,5.642,8.445,5.642
		c0.052-0.003,4.063,0.028,6.497-2.597c1.525-1.645,2.159-4.049,1.884-7.145c-0.095-0.723-0.912-7.693,1.759-11.207
		c0.501-0.66,1.444-0.788,2.102-0.287c0.66,0.501,0.788,1.442,0.287,2.102c-1.637,2.153-1.396,7.274-1.166,9.066
		c0.362,4.051-0.545,7.239-2.688,9.534C27.002,104.083,22.231,104.208,21.554,104.208z"/>
	<path d="M39.178,53.874"/>
	<path d="M61.512,63.541c-3.229,0-6.075-1.849-7.451-4.55c-1.483,1.256-3.394,1.976-5.426,1.976c-4.188,0-7.666-3.059-8.247-7.027
		c-0.789,0.242-1.616,0.366-2.46,0.366c-4.596,0-8.334-3.68-8.334-8.202c0-1.714,0.532-3.343,1.506-4.703
		c-2.563-1.425-4.256-4.141-4.256-7.149c0-4.05,2.998-7.423,6.924-8.085c-0.142-0.604-0.215-1.223-0.215-1.846
		c0-4.726,4.097-8.549,8.958-8.178c1.137-3.245,4.289-5.542,7.874-5.542c1.759,0,3.462,0.554,4.871,1.555
		c1.563-1.696,3.802-2.699,6.172-2.699c0.828,0,1.5,0.671,1.5,1.5s-0.672,1.5-1.5,1.5c-1.916,0-3.695,1.016-4.644,2.651
		c-0.24,0.414-0.664,0.689-1.14,0.739c-0.474,0.051-0.947-0.129-1.27-0.484c-1.016-1.12-2.47-1.762-3.99-1.762
		c-2.634,0-4.899,1.918-5.271,4.463c-0.062,0.421-0.3,0.797-0.654,1.033c-0.355,0.236-0.795,0.309-1.206,0.203
		c-3.548-0.917-6.7,1.72-6.7,5.021c0,0.893,0.227,1.743,0.674,2.526c0.279,0.489,0.261,1.092-0.047,1.563
		c-0.307,0.471-0.847,0.732-1.413,0.672c-0.194-0.021-0.39-0.033-0.589-0.033c-2.941,0-5.334,2.333-5.334,5.202
		c0,2.438,1.772,4.577,4.214,5.085c0.575,0.12,1.028,0.565,1.157,1.138c0.13,0.574-0.088,1.17-0.556,1.525
		c-1.312,0.996-2.065,2.492-2.065,4.103c0,2.869,2.393,5.202,5.334,5.202c1.128,0,2.208-0.344,3.125-0.996
		c0.499-0.355,1.165-0.37,1.68-0.04s0.777,0.941,0.663,1.543c-0.062,0.323-0.093,0.643-0.093,0.951c0,2.869,2.392,5.202,5.332,5.202
		c2.005,0,3.822-1.084,4.741-2.829c0.311-0.591,0.978-0.904,1.632-0.77c0.655,0.136,1.141,0.689,1.191,1.356
		c0.203,2.701,2.537,4.817,5.312,4.817c0.828,0,1.5,0.671,1.5,1.5S62.34,63.541,61.512,63.541z"/>
	<path d="M77.094,75.345c-3.177,0-5.762-2.585-5.762-5.763s2.585-5.763,5.762-5.763c3.178,0,5.764,2.585,5.764,5.763
		S80.271,75.345,77.094,75.345z M77.094,66.82c-1.522,0-2.762,1.239-2.762,2.763s1.239,2.763,2.762,2.763
		c1.523,0,2.764-1.239,2.764-2.763S78.617,66.82,77.094,66.82z"/>
	<path d="M73.428,67.52"/>
	<path d="M61.594,113.645c-0.828,0-1.5-0.671-1.5-1.5s0.672-1.5,1.5-1.5c5.446,0,7.258-1.566,7.273-1.582
		c0.08-0.081,0.169-0.151,0.266-0.211c2.229-1.393,4.215-6.043,4.793-7.717c1.947-4.915,7.034-9.017,7.638-9.491
		c1.712-1.563,3.215-3.287,4.469-5.125c2.751-4.029,4.146-8.722,4.146-13.949c0-7.163-2.296-12.846-7.227-17.883
		c-0.579-0.592-0.569-1.542,0.023-2.122c0.592-0.579,1.541-0.57,2.121,0.023c5.438,5.558,8.082,12.094,8.082,19.982
		c0,5.842-1.57,11.104-4.667,15.64c-1.396,2.045-3.068,3.959-4.97,5.689c-0.029,0.027-0.061,0.053-0.092,0.077
		c-0.05,0.039-5.014,3.919-6.711,8.199c-0.223,0.648-2.452,6.887-5.903,9.147C70.183,111.876,67.625,113.645,61.594,113.645z"/>
	<path d="M61.808,108.371c-0.828,0-1.5-0.671-1.5-1.5s0.672-1.5,1.5-1.5c2.002,0,3.548-0.562,4.597-1.67
		c0.869-0.919,1.348-2.204,1.278-3.438c-0.058-1.056-3.663-1.056-6.049-1.056c-0.828,0-1.5-0.671-1.5-1.5s0.672-1.5,1.5-1.5
		c4.14,0,8.831,0,9.045,3.891c0.113,2.04-0.67,4.158-2.095,5.665C67.459,106.953,65.369,108.371,61.808,108.371z"/>
	<path d="M101.526,104.208c-0.644,0-5.422-0.121-8.607-3.534c-2.143-2.295-3.05-5.482-2.694-9.474
		c0.237-1.852,0.479-6.973-1.157-9.126c-0.501-0.66-0.373-1.601,0.287-2.102c0.658-0.501,1.602-0.373,2.102,0.287
		c2.671,3.514,1.853,10.485,1.75,11.268c-0.27,3.045,0.369,5.455,1.905,7.101c2.46,2.634,6.414,2.589,6.452,2.581
		c6.542,0,8.402-5.419,8.479-5.649c0.216-0.656,0.854-1.085,1.542-1.034c1.481,0.119,3.111-0.935,3.616-1.348
		c5.059-4.406,3.319-12.884,3.302-12.969c-0.097-0.45,0.02-0.919,0.314-1.273c1.303-1.563,1.426-6.046,1.198-8.505
		c-2.723-19.163-22.17-30.209-26.04-32.228c-0.734-0.383-1.02-1.289-0.637-2.024c0.383-0.734,1.29-1.017,2.023-0.636
		c4.1,2.138,24.695,13.851,27.632,34.539c0.075,0.797,0.574,6.924-1.438,10.171c0.366,2.376,1.114,10.398-4.413,15.213
		c-0.264,0.22-2.204,1.778-4.649,2.034c-1.3,2.764-4.718,6.709-10.898,6.709C101.584,104.207,101.561,104.208,101.526,104.208z"/>
	<path d="M83.928,53.874"/>
	<path d="M61.594,63.541c-0.828,0-1.5-0.671-1.5-1.5s0.672-1.5,1.5-1.5c2.775,0,5.108-2.116,5.311-4.816
		c0.05-0.667,0.535-1.22,1.19-1.356c0.656-0.139,1.321,0.178,1.632,0.768c0.922,1.746,2.738,2.83,4.742,2.83
		c2.941,0,5.334-2.333,5.334-5.202c0-0.306-0.031-0.617-0.095-0.951c-0.114-0.602,0.147-1.212,0.663-1.543
		c0.515-0.33,1.18-0.315,1.679,0.039c0.919,0.652,2.001,0.997,3.128,0.997c2.94,0,5.332-2.333,5.332-5.202
		c0-1.611-0.753-3.107-2.065-4.103c-0.468-0.355-0.686-0.952-0.556-1.525c0.129-0.573,0.582-1.018,1.157-1.138
		c2.441-0.508,4.214-2.646,4.214-5.085c0-2.869-2.392-5.202-5.332-5.202c-0.2,0-0.396,0.013-0.588,0.033
		c-0.565,0.062-1.105-0.201-1.414-0.671c-0.308-0.472-0.326-1.076-0.047-1.564c0.447-0.783,0.674-1.633,0.674-2.526
		c0-3.299-3.124-5.943-6.703-5.021c-0.414,0.106-0.852,0.032-1.205-0.204c-0.354-0.235-0.593-0.611-0.654-1.032
		c-0.372-2.544-2.638-4.463-5.271-4.463c-1.521,0-2.975,0.642-3.99,1.762c-0.321,0.354-0.796,0.536-1.27,0.484
		c-0.477-0.051-0.9-0.326-1.14-0.74c-0.946-1.634-2.726-2.65-4.642-2.65c-0.828,0-1.5-0.671-1.5-1.5s0.672-1.5,1.5-1.5
		c2.37,0,4.608,1.003,6.171,2.699c1.409-1.001,3.111-1.555,4.87-1.555c3.585,0,6.737,2.297,7.874,5.542
		c4.881-0.377,8.96,3.451,8.96,8.177c0,0.623-0.073,1.242-0.215,1.846c3.925,0.661,6.922,4.035,6.922,8.084
		c0,3.008-1.692,5.724-4.256,7.149c0.974,1.36,1.506,2.988,1.506,4.703c0,4.522-3.737,8.202-8.332,8.202
		c-0.844,0-1.67-0.124-2.46-0.366c-0.581,3.968-4.059,7.027-8.249,7.027c-2.031,0-3.941-0.72-5.425-1.976
		C67.669,61.692,64.822,63.541,61.594,63.541z"/>
</g>
<g>
</g>
<g>
</g>
<g>
</g>
<g>
</g>
<g>
</g>
<g>
</g>
<g>
</g>
<g>
</g>
<g>
</g>
<g>
</g>
<g>
</g>
<g>
</g>
<g>
</g>
<g>
</g>
<g>
</g>
</svg>
